<?xml version="1.0" encoding="UTF-8"?> <svg xmlns="http://www.w3.org/2000/svg" id="Layer_1" data-name="Layer 1" viewBox="0 0 150.18 141.02"><defs><style>.cls-1{fill:#fff;}</style></defs><title>Download link icon white</title><path class="cls-1" d="M168.1,173.51H38.32a10.12,10.12,0,0,1-10.2-10V131.08a4.73,4.73,0,1,1,9.46,0V163.5a.68.68,0,0,0,.74.55H168.1a.68.68,0,0,0,.74-.55V131.08a4.73,4.73,0,1,1,9.46,0V163.5A10.12,10.12,0,0,1,168.1,173.51Z" transform="translate(-28.12 -32.49)"></path><path class="cls-1" d="M103.21,128.78a4.73,4.73,0,0,1-4.73-4.73V37.22a4.73,4.73,0,0,1,9.46,0v86.83A4.73,4.73,0,0,1,103.21,128.78Z" transform="translate(-28.12 -32.49)"></path><path class="cls-1" d="M103.21,138.16a4.68,4.68,0,0,1-3.34-1.38L59.4,96.31a4.73,4.73,0,1,1,6.68-6.69l37.13,37.13,37.12-37.13A4.73,4.73,0,0,1,147,96.31l-40.47,40.47A4.7,4.7,0,0,1,103.21,138.16Z" transform="translate(-28.12 -32.49)"></path></svg> 